<?xml version="1.0" standalone="no"?>
<!DOCTYPE svg PUBLIC "-//W3C//DTD SVG 20010904//EN"
 "http://www.w3.org/TR/2001/REC-SVG-20010904/DTD/svg10.dtd">
<svg version="1.0" xmlns="http://www.w3.org/2000/svg"
 width="488.000000pt" height="488.000000pt" viewBox="0 0 488.000000 488.000000"
 preserveAspectRatio="xMidYMid meet">
<metadata>
Created by potrace 1.14, written by Peter Selinger 2001-2017
</metadata>
<g transform="translate(0.000000,488.000000) scale(0.100000,-0.100000)"
fill="#000000" stroke="none">
<path d="M2492 4854 c-72 -36 -107 -95 -107 -179 1 -66 -13 -37 184 -395 65
-118 115 -197 138 -218 80 -71 197 -66 279 13 29 28 48 83 48 140 1 58 -3 66
-138 314 -77 139 -150 266 -163 281 -30 36 -87 63 -143 67 -34 3 -58 -3 -98
-23z"/>
<path d="M1985 4021 c-53 -24 -84 -60 -134 -153 -22 -43 -58 -111 -80 -150
-21 -40 -61 -116 -88 -168 -46 -86 -243 -457 -348 -655 -132 -248 -209 -394
-270 -510 -38 -71 -71 -134 -75 -140 -20 -28 -144 -272 -175 -346 -20 -46 -49
-133 -65 -194 -42 -161 -38 -337 14 -553 10 -44 49 -147 81 -218 210 -460 639
-780 1163 -868 48 -8 103 -18 122 -21 76 -14 415 -13 515 1 555 78 1013 370
1297 826 81 130 166 329 193 453 2 11 9 38 14 60 19 79 24 143 25 305 0 176
-12 260 -61 414 -34 109 -211 483 -508 1076 -318 637 -317 634 -408 660 -115
32 -222 -32 -253 -150 -16 -61 -7 -97 51 -205 54 -101 441 -875 488 -975 19
-41 72 -151 117 -245 148 -306 172 -393 166 -610 -4 -152 -4 -151 -42 -281
-90 -313 -342 -614 -648 -773 -78 -41 -239 -105 -287 -115 -200 -41 -260 -48
-389 -49 -536 -1 -938 209 -1153 603 -37 67 -82 178 -92 227 -3 15 -8 35 -10
43 -10 46 -18 133 -17 192 2 117 44 222 236 581 18 34 57 107 86 162 29 55 86
161 126 237 41 75 74 138 74 141 0 3 17 36 38 74 21 37 65 118 97 178 32 61
72 135 88 165 16 30 61 116 100 190 39 74 75 143 82 152 9 14 20 -1 72 -100
34 -64 82 -155 107 -202 24 -47 54 -103 65 -126 12 -22 116 -218 231 -435 264
-494 276 -519 303 -627 66 -258 -53 -464 -301 -522 -111 -26 -270 -7 -351 42
-148 89 -201 267 -130 443 43 106 97 208 171 323 71 109 90 157 83 213 -24
187 -256 242 -371 88 -130 -174 -276 -471 -309 -630 -61 -288 80 -619 331
-775 216 -135 517 -161 775 -68 113 41 193 89 275 164 177 162 264 383 250
630 -12 208 -61 347 -236 665 -15 28 -47 86 -70 130 -23 44 -59 112 -80 150
-56 105 -121 227 -185 350 -32 61 -70 133 -85 160 -15 28 -62 118 -105 200
-155 299 -240 458 -269 503 -27 41 -107 82 -160 82 -23 0 -59 -9 -81 -19z"/>
</g>
</svg>
