<?xml version="1.0" encoding="UTF-8"?>
<svg width="346px" height="485px" viewBox="0 0 346 485" version="1.1" xmlns="http://www.w3.org/2000/svg" xmlns:xlink="http://www.w3.org/1999/xlink">
    <!-- Generator: Sketch 60.1 (88133) - https://sketch.com -->
    <title>形状结合备份 82</title>
    <desc>Created with Sketch.</desc>
    <defs>
        <linearGradient x1="50%" y1="17.9015552%" x2="50%" y2="100%" id="linearGradient-1">
            <stop stop-color="#4BE0FF" offset="0%"></stop>
            <stop stop-color="#0196FC" offset="100%"></stop>
        </linearGradient>
    </defs>
    <g id="页面-2" stroke="none" stroke-width="1" fill="none" fill-rule="evenodd">
        <path d="M152.571237,94.9059359 L168.512183,125.36268 C197.639905,180.928549 221.197156,225.366985 239.177045,258.665636 C257.395399,292.405919 258.786386,326.213404 243.536469,352.715539 C228.905595,378.141867 200.914997,393 168.860532,393 C138.416875,393 114.015808,379.64072 100.220156,357.157571 C87.9112309,337.097382 85.6064097,311.787313 93.9125022,290.646116 C101.167863,272.179309 110.538739,255.032033 122.010922,239.243371 C128.605487,230.167561 141.312345,228.153565 150.392484,234.744987 C159.472624,241.336408 161.487579,254.037209 154.893014,263.11302 C145.454868,276.102327 137.741742,290.216173 131.739429,305.493643 C128.108964,314.734133 129.197538,326.688152 134.86286,335.921082 C141.19365,346.238542 152.411698,352.380284 168.860532,352.380284 C186.895448,352.380284 201.225052,344.773758 208.308436,332.463869 C215.990299,319.11391 215.317894,300.417742 203.828944,278.733483 L195.24865,262.784824 C179.096669,232.67892 159.194866,195.080424 135.539427,149.982495 L134.42976,147.865806 L57.0099897,293.620236 L55.8668308,295.663741 C45.7150197,313.963868 40.7988695,327.941057 40.642925,336.709524 L40.6390913,337.136556 C40.6390913,337.864008 40.6008279,338.582527 40.5262029,339.290213 C40.6446654,340.177015 40.7058175,341.081645 40.7058175,342.000528 C40.7058175,361.074633 50.0504097,385.901857 67.1671323,405.037264 C89.4032821,429.895864 122.804977,444.380407 168.626327,444.380407 C215.747322,444.380407 257.242961,422.526975 282.537977,387.22481 C306.765132,353.412969 312.187376,312.533848 296.132641,278.574882 L291.257629,268.289549 C266.619722,216.44273 244.168908,171.259787 223.913831,132.753219 C218.689584,122.821495 222.522838,110.544124 232.475644,105.330943 C242.428451,100.117762 254.731884,103.942897 259.956131,113.874621 L263.000451,119.680467 C284.080454,160.008024 307.393041,207.191403 332.947287,261.243729 C355.591559,309.14088 348.109427,365.549811 315.650301,410.850334 C282.804481,456.690532 229.050021,485 168.626327,485 C111.367366,485 66.8706609,465.70414 36.7994095,432.086394 C12.9749306,405.452143 0,370.979637 0,342.000528 C0,341.177607 0.0490464742,340.366116 0.14438155,339.568809 C0.0489660758,338.770973 0,337.95948 0,337.136556 C0,320.207575 6.90221797,300.199352 20.2066864,276.180434 L21.3529397,274.129299 L116.614049,94.7861308 C124.281846,80.3502946 144.999898,80.4193247 152.571237,94.9059359 Z M203.75536,10.0922363 L203.990804,10.5092413 L229.483793,56.9052254 C234.879267,66.7247239 231.311905,79.0693712 221.515866,84.4777669 C211.85977,89.8088997 199.756018,86.4105923 194.24464,76.9077637 L194.009196,76.4907587 L168.516207,30.0947746 C163.120733,20.2752761 166.688095,7.93062877 176.484134,2.52223312 C186.14023,-2.80889974 198.243982,0.589407654 203.75536,10.0922363 Z" id="形状结合备份-82" fill="url(#linearGradient-1)" fill-rule="nonzero"></path>
    </g>
</svg>